<svg width="48" height="48" viewBox="0 0 48 48" fill="none" xmlns="http://www.w3.org/2000/svg">
<path d="M0 14C0 6.26801 6.26801 0 14 0H34C41.732 0 48 6.26801 48 14V34C48 41.732 41.732 48 34 48H14C6.26801 48 0 41.732 0 34V14Z" fill="white" fill-opacity="0.2"/>
<path d="M33.801 22C34.2577 24.2413 33.9322 26.5714 32.8788 28.6018C31.8255 30.6322 30.1079 32.24 28.0125 33.1573C25.9171 34.0746 23.5706 34.2458 21.3643 33.6424C19.1579 33.0389 17.2252 31.6974 15.8883 29.8414C14.5513 27.9854 13.8911 25.7272 14.0176 23.4434C14.1442 21.1595 15.0499 18.9881 16.5836 17.2912C18.1174 15.5942 20.1866 14.4744 22.446 14.1184C24.7055 13.7625 27.0188 14.1918 29 15.335" stroke="white" stroke-width="2" stroke-linecap="round" stroke-linejoin="round"/>
<path d="M21 23L24 26L34 16" stroke="white" stroke-width="2" stroke-linecap="round" stroke-linejoin="round"/>
</svg>
