<svg width="24" height="24" viewBox="0 0 24 24" fill="none" xmlns="http://www.w3.org/2000/svg">
<path d="M18.9004 19.3496V21C18.9004 21.0197 18.8962 21.0394 18.8887 21.0576C18.8811 21.0758 18.8703 21.0925 18.8564 21.1064C18.8426 21.1203 18.8258 21.1311 18.8076 21.1387C18.7894 21.1462 18.7697 21.1504 18.75 21.1504H5.25L5.19238 21.1387C5.17422 21.1311 5.15745 21.1203 5.14355 21.1064C5.12966 21.0925 5.11886 21.0758 5.11133 21.0576C5.1038 21.0394 5.0996 21.0197 5.09961 21V19.3496H18.9004Z" stroke="#9810FA" stroke-width="1.2"/>
<path d="M12 2.09961C12.03 2.09961 12.0592 2.10917 12.084 2.12598C12.1088 2.14281 12.1285 2.16648 12.1396 2.19434L15.0791 9.54297L15.6621 9.25098L20.9326 6.61621L20.9316 6.61523C20.9569 6.60281 20.9856 6.59897 21.0137 6.60156C21.0413 6.60418 21.0685 6.61342 21.0908 6.62988V6.63086C21.1131 6.64789 21.1307 6.671 21.1406 6.69727C21.1455 6.71018 21.1483 6.72369 21.1494 6.7373L21.1475 6.7793L19.1729 16.6504H4.82715L2.85254 6.7793C2.84707 6.75191 2.84959 6.72342 2.85938 6.69727C2.86927 6.67099 2.88687 6.64791 2.90918 6.63086C2.93135 6.61395 2.95761 6.6033 2.98535 6.60059C3.01331 6.59794 3.04227 6.60267 3.06738 6.61523V6.61621L8.33789 9.25098L8.9209 9.54297L11.8604 2.19434C11.8715 2.16647 11.8912 2.1428 11.916 2.12598C11.9408 2.10918 11.97 2.09961 12 2.09961ZM11.9268 9.9043C11.3261 9.97855 10.7775 10.2852 10.3994 10.7578C10.0339 11.2149 9.85689 11.7927 9.89941 12.375C9.8569 12.9573 10.0339 13.5351 10.3994 13.9922C10.7775 14.4648 11.3262 14.7714 11.9268 14.8457L12 14.8545L12.0732 14.8457C12.6739 14.7715 13.2216 14.4648 13.5996 13.9922C13.9654 13.535 14.1422 12.9575 14.0996 12.375C14.1422 11.7925 13.9654 11.215 13.5996 10.7578C13.2215 10.2852 12.6739 9.97854 12.0732 9.9043L12 9.89551L11.9268 9.9043Z" stroke="#9810FA" stroke-width="1.2"/>
</svg>
