<svg width="24" height="24" viewBox="0 0 24 24" fill="none" xmlns="http://www.w3.org/2000/svg">
<path d="M21.9744 17.0296V10.8008L22.1522 10.6973C22.5294 10.4783 22.7544 10.0876 22.7544 9.65184C22.7544 9.21609 22.5294 8.82459 22.1522 8.60559L13.0344 3.30909C12.2672 2.86209 11.3124 2.86284 10.5452 3.30909L1.4267 8.60634C1.0502 8.82534 0.825195 9.21609 0.825195 9.65184C0.825195 10.0876 1.0502 10.4783 1.4267 10.6981L4.1912 12.3046V16.0388C4.1912 16.9058 4.6577 17.7121 5.4077 18.1448L9.2132 20.3386C10.0074 20.7961 10.8984 21.0256 11.7894 21.0256C12.6804 21.0256 13.5707 20.7968 14.3657 20.3386L18.1704 18.1448C18.9212 17.7128 19.3877 16.9058 19.3877 16.0388V12.3038L20.6244 11.5853V17.0296C20.3072 17.2456 20.0987 17.6093 20.0987 18.0226C20.0987 18.6856 20.6364 19.2233 21.2994 19.2233C21.9624 19.2233 22.5002 18.6856 22.5002 18.0226C22.5002 17.6101 22.2917 17.2463 21.9744 17.0296ZM18.0384 16.0381H18.0377C18.0377 16.4236 17.8314 16.7821 17.4969 16.9741L13.6922 19.1678C12.5192 19.8436 11.0604 19.8436 9.8882 19.1678L6.0827 16.9741C5.74895 16.7821 5.54195 16.4236 5.54195 16.0381V13.0883L10.5452 15.9953C10.9292 16.2181 11.3597 16.3298 11.7902 16.3298C12.2207 16.3298 12.6512 16.2188 13.0352 15.9953L18.0384 13.0883V16.0381ZM12.3564 14.8283C12.0069 15.0316 11.5727 15.0316 11.2232 14.8283L2.31395 9.65184L11.2224 4.47534C11.5719 4.27209 12.0062 4.27209 12.3557 4.47534L21.2649 9.65109L12.3564 14.8283Z" fill="#9810FA"/>
</svg>
