<svg width="24" height="24" viewBox="0 0 24 24" fill="none" xmlns="http://www.w3.org/2000/svg">
<path d="M21.3989 0H11.875C11.4504 3.91974e-06 11.0431 0.162116 10.7428 0.450673C10.4426 0.739231 10.2739 1.1306 10.2739 1.53868V6.28561H9.19181C8.71715 6.28612 8.26209 6.46754 7.92646 6.79009C7.59082 7.11263 7.40203 7.54994 7.4015 8.00609V9.98046C7.4015 10.0589 7.43391 10.134 7.49159 10.1895C7.54928 10.2449 7.62751 10.2761 7.70909 10.2761C7.79067 10.2761 7.8689 10.2449 7.92658 10.1895C7.98427 10.134 8.01667 10.0589 8.01667 9.98046V8.00609C8.01703 7.70669 8.14095 7.41965 8.36125 7.20794C8.58155 6.99623 8.88024 6.87715 9.19179 6.87682H10.2739V14.7411C10.2151 14.7491 10.1584 14.758 10.1038 14.7677C9.78517 14.4482 9.34174 14.3103 8.96654 14.2541C9.298 13.713 9.38566 13.01 9.18106 12.4615C8.99538 11.9637 8.60218 11.6186 8.04393 11.4636C7.07477 11.1946 6.56323 11.5849 6.31712 11.9114C5.97499 11.5069 5.46656 11.4038 4.9024 11.6305L4.88517 11.638C4.20032 11.962 3.87822 12.5932 3.96802 13.4253C3.60327 13.2974 3.06084 13.2369 2.3573 13.5142C1.65367 13.7915 1.20326 14.3835 1.15244 15.098C1.12732 15.4635 1.20997 15.8284 1.39092 16.1507C1.57186 16.4731 1.84376 16.7399 2.17538 16.9204C2.19808 16.9331 2.21965 16.9464 2.24181 16.9593C1.15685 17.2848 1 17.6348 1 17.8956V17.9222C1.00048 18.3446 1.13234 18.7572 1.37865 19.107C1.62497 19.4568 1.97449 19.7279 2.38232 19.8854C3.12755 20.1783 4.45872 20.8809 5.00055 22.297C5.02458 22.3597 5.06608 22.4857 5.08716 22.5508C5.16095 23.0032 5.6773 23.3672 6.62273 23.6328C7.46514 23.8696 8.56997 24 9.73373 24C11.8387 24 14.1774 23.554 14.3767 22.5755C14.4026 22.4958 14.4613 22.3201 14.4958 22.2359C14.6573 21.8467 14.8869 21.487 15.1747 21.1723H21.3989C21.6091 21.1723 21.8173 21.1325 22.0116 21.0551C22.2059 20.9778 22.3824 20.8645 22.531 20.7216C22.6797 20.5787 22.7977 20.4091 22.8781 20.2224C22.9586 20.0357 23 19.8357 23 19.6336V1.53868C23 1.33661 22.9586 1.13653 22.8781 0.949849C22.7977 0.763168 22.6797 0.593545 22.531 0.450666C22.3824 0.307786 22.2059 0.194449 22.0116 0.117123C21.8173 0.0397979 21.6091 -6.46949e-07 21.3989 0ZM17.5811 0.76936H18.1598C18.2414 0.76936 18.3196 0.800503 18.3773 0.855936C18.435 0.91137 18.4674 0.986555 18.4674 1.06495C18.4674 1.14334 18.435 1.21853 18.3773 1.27396C18.3196 1.3294 18.2414 1.36054 18.1598 1.36054H17.5811C17.4995 1.36054 17.4212 1.3294 17.3636 1.27396C17.3059 1.21853 17.2735 1.14334 17.2735 1.06495C17.2735 0.986555 17.3059 0.91137 17.3636 0.855936C17.4212 0.800503 17.4995 0.76936 17.5811 0.76936ZM15.114 0.76936H16.561C16.6426 0.76936 16.7208 0.800503 16.7785 0.855936C16.8362 0.91137 16.8686 0.986555 16.8686 1.06495C16.8686 1.14334 16.8362 1.21853 16.7785 1.27396C16.7208 1.3294 16.6426 1.36054 16.561 1.36054H15.114C15.0324 1.36054 14.9542 1.3294 14.8965 1.27396C14.8388 1.21853 14.8064 1.14334 14.8064 1.06495C14.8064 0.986555 14.8388 0.91137 14.8965 0.855936C14.9542 0.800503 15.0324 0.76936 15.114 0.76936ZM13.1914 15.7743C13.2697 15.7926 13.3462 15.8117 13.4209 15.8319C14.0298 15.997 14.3294 16.1764 14.4433 16.2736C14.3434 16.3662 14.0779 16.5358 13.5273 16.6906C12.8622 16.8775 12.0052 16.9805 11.114 16.9805C10.2229 16.9805 9.36587 16.8775 8.70075 16.6906C8.15014 16.5358 7.88463 16.3662 7.78473 16.2736C7.89867 16.1764 8.19828 15.9969 8.80716 15.8319C8.8451 15.8216 8.88436 15.812 8.92333 15.8023C9.27465 16.0724 10.0904 16.2619 11.0407 16.2619C12.0232 16.2619 12.8614 16.0592 13.1914 15.7743ZM11.2603 15.4293C11.2603 15.2861 11.5277 15.17 11.8577 15.17C12.1876 15.17 12.4551 15.2861 12.4551 15.4293C12.4551 15.5725 12.1876 15.6885 11.8577 15.6885C11.5277 15.6885 11.2603 15.5725 11.2603 15.4293ZM5.40327 17.527C5.40201 17.3921 5.43131 17.2585 5.48916 17.1355C5.547 17.0125 5.632 16.9031 5.73825 16.8149C6.12668 16.4929 6.6285 16.3257 7.14098 16.3477C7.22818 16.791 7.98536 17.1741 9.08346 17.3886C8.57142 17.7917 7.89637 18.0497 7.34836 18.207L5.43909 18.1974C5.41689 17.9677 5.40475 17.7436 5.40327 17.527ZM1.76622 15.1383C1.78237 14.9019 1.86858 14.6748 2.01468 14.484C2.16077 14.2931 2.36065 14.1464 2.5907 14.0612C3.07316 13.8711 3.49889 13.8574 3.85579 14.0204C3.94169 14.0597 4.03712 14.0758 4.13181 14.0668C4.22649 14.0578 4.31683 14.0242 4.39309 13.9695C4.46934 13.9148 4.52863 13.8412 4.56454 13.7565C4.60046 13.6719 4.61165 13.5794 4.59691 13.489C4.49083 12.8428 4.67637 12.3999 5.14846 12.1724C5.48357 12.0402 5.71071 12.093 5.88458 12.3428C5.9334 12.4138 6.00015 12.4717 6.07859 12.5112C6.15704 12.5506 6.24461 12.5703 6.33311 12.5684C6.42162 12.5664 6.50818 12.543 6.58469 12.5002C6.66119 12.4574 6.72515 12.3966 6.77059 12.3236C6.98345 11.9802 7.34406 11.8847 7.87322 12.0316C8.23888 12.1331 8.48409 12.3449 8.60198 12.661C8.75593 13.0738 8.66504 13.6401 8.38086 14.0382C8.32938 14.1098 8.29816 14.1931 8.29025 14.2799C8.28235 14.3666 8.29803 14.4538 8.33575 14.533C8.37348 14.6122 8.43197 14.6806 8.50548 14.7315C8.57899 14.7824 8.665 14.8141 8.75508 14.8235C8.96553 14.8419 9.17132 14.8939 9.36405 14.9772C9.23128 15.0285 9.10577 15.0958 8.99048 15.1773C8.32667 15.3236 7.7706 15.5327 7.44429 15.7783C6.67518 15.6845 6.08839 15.8771 5.66809 16.1299C5.65435 16.138 5.63843 16.1421 5.62229 16.1417C5.60615 16.1413 5.59048 16.1364 5.5772 16.1276C5.56391 16.1188 5.55359 16.1064 5.54749 16.0921C5.54139 16.0777 5.53977 16.0619 5.54284 16.0467C5.83676 14.555 6.49225 13.6359 6.50604 13.6174C6.55315 13.5533 6.57184 13.4739 6.558 13.3965C6.54415 13.3192 6.49891 13.2503 6.43222 13.2051C6.3992 13.1826 6.36191 13.1667 6.32247 13.1581C6.28304 13.1496 6.24223 13.1485 6.20239 13.1551C6.12192 13.1684 6.05025 13.2119 6.00314 13.276C5.96459 13.3285 5.41727 14.0883 5.06982 15.3517C5.06497 15.3694 5.05521 15.3855 5.04156 15.3983C5.02792 15.4111 5.01091 15.4201 4.99235 15.4243C4.9738 15.4286 4.9544 15.4279 4.93623 15.4223C4.91806 15.4168 4.9018 15.4066 4.88919 15.3928C4.58076 15.0559 4.17549 14.8143 3.72442 14.6983C3.64474 14.6814 3.56137 14.6957 3.49263 14.7379C3.42389 14.7801 3.37542 14.8469 3.35788 14.9234C3.34034 15 3.35517 15.0801 3.3991 15.1462C3.44304 15.2122 3.51248 15.2588 3.59216 15.2757C3.85277 15.3484 4.09262 15.4774 4.29334 15.6529C4.49406 15.8284 4.65033 16.0457 4.75018 16.2882C4.80966 16.4275 4.83349 16.5784 4.81967 16.7284C4.77537 17.2161 4.77578 17.7066 4.82087 18.1943L4.09924 18.1907C3.95435 17.8776 3.7742 17.5807 3.56199 17.3053C3.26918 16.9398 2.90248 16.6349 2.48394 16.409C2.25205 16.2835 2.0617 16.0977 1.93474 15.8729C1.80779 15.6482 1.74937 15.3935 1.76622 15.1383ZM13.9237 22.0189C13.8702 22.149 13.7737 22.4581 13.7737 22.4581C13.7182 22.7899 12.2819 23.4088 9.73375 23.4088C8.62682 23.4088 7.58326 23.2869 6.79542 23.0654C5.95331 22.8288 5.70681 22.5616 5.69409 22.4534C5.69409 22.4534 5.61649 22.1937 5.57794 22.093C4.95466 20.4641 3.45413 19.6679 2.61513 19.3383C2.32055 19.2249 2.06794 19.0295 1.88976 18.7772C1.71158 18.5249 1.61596 18.2271 1.61518 17.9222V17.9065C1.66013 17.8241 1.96439 17.6227 2.84592 17.4122C2.92628 17.4898 3.00108 17.5726 3.0698 17.6599C3.16996 17.7886 3.26152 17.9232 3.34392 18.063C3.14128 18.0236 2.94164 17.9711 2.74635 17.9059C2.70836 17.8922 2.66793 17.8859 2.6274 17.8873C2.58686 17.8887 2.54701 17.8978 2.51015 17.9141C2.47329 17.9304 2.44014 17.9535 2.41261 17.9821C2.38508 18.0107 2.36372 18.0443 2.34975 18.0809C2.33578 18.1175 2.32948 18.1564 2.33121 18.1953C2.33294 18.2343 2.34268 18.2725 2.35985 18.3078C2.37702 18.3431 2.40129 18.3748 2.43126 18.4011C2.46123 18.4274 2.49631 18.4477 2.53448 18.4609C3.62059 18.8437 6.56878 19.1111 9.70396 19.1111C12.624 19.1111 15.4426 18.8809 16.7178 18.5384C16.7959 18.5168 16.8619 18.4665 16.9015 18.3984C16.9411 18.3302 16.9511 18.2498 16.9292 18.1746C16.9074 18.0995 16.8555 18.0357 16.7848 17.9971C16.7142 17.9586 16.6306 17.9485 16.5522 17.969C16.146 18.0702 15.7336 18.147 15.3175 18.199C14.849 17.8114 14.3266 17.4882 13.7655 17.2389C13.9509 17.1855 14.1325 17.1204 14.3089 17.0439C14.7077 17.0862 15.0866 17.1341 15.44 17.1878C17.2543 17.4634 17.7912 17.7946 17.8523 17.9065V17.9222C17.8515 18.2271 17.7559 18.5249 17.5777 18.7772C17.3995 19.0295 17.1469 19.2249 16.8523 19.3383C16.0382 19.6581 14.5754 20.4316 13.9237 22.0189ZM22.1599 19.4173C22.1599 19.6518 22.0629 19.8768 21.8904 20.0426C21.7178 20.2085 21.4837 20.3016 21.2397 20.3016H16.2461C16.5129 20.1401 16.7936 20.0009 17.0851 19.8854C17.4929 19.7279 17.8424 19.4568 18.0888 19.107C18.3351 18.7572 18.467 18.3445 18.4674 17.9221V17.8956C18.4674 17.545 18.185 17.033 15.7432 16.6364C15.5106 16.5986 15.2656 16.5636 15.012 16.5309C15.0657 16.4505 15.0949 16.3573 15.0965 16.2619C15.0965 15.7788 14.1905 15.3571 13.0078 15.13L13.0077 15.13C13.0077 15.13 12.4123 14.7209 11.114 14.6956V11.6002H12.5949C12.6653 12.0171 12.8826 12.398 13.2103 12.6794C13.538 12.9607 13.9563 13.1254 14.3952 13.1459C14.8342 13.1664 15.2671 13.0414 15.6216 12.7919C15.9762 12.5424 16.2308 12.1835 16.343 11.7752C16.3541 11.7327 16.3549 11.6884 16.3455 11.6456C16.336 11.6028 16.3165 11.5626 16.2884 11.5282C16.2603 11.4937 16.2244 11.4659 16.1833 11.4468C16.1423 11.4278 16.0973 11.418 16.0518 11.4182H16.0354C15.9689 11.4187 15.9045 11.4402 15.852 11.4794C15.7995 11.5186 15.7619 11.5734 15.7451 11.6352C15.6838 11.8504 15.5637 12.046 15.3973 12.2017C15.2309 12.3574 15.0242 12.4675 14.7987 12.5207C14.5731 12.5738 14.3369 12.5681 14.1144 12.504C13.8919 12.44 13.6913 12.3199 13.5333 12.1563C13.3753 11.9928 13.2657 11.7916 13.2158 11.5736C13.1659 11.3556 13.1776 11.1288 13.2495 10.9166C13.3215 10.7044 13.4511 10.5145 13.6251 10.3667C13.799 10.2188 14.011 10.1183 14.2389 10.0756C14.3084 10.0636 14.3715 10.0287 14.4171 9.97683C14.4627 9.92497 14.488 9.85943 14.4886 9.79154V9.77663C14.4886 9.73427 14.4789 9.69244 14.4602 9.6541C14.4415 9.61576 14.4142 9.58185 14.3803 9.55478C14.3464 9.52772 14.3067 9.50816 14.264 9.4975C14.2214 9.48684 14.1768 9.48533 14.1335 9.4931C13.7463 9.56385 13.3911 9.74721 13.116 10.0184C12.8408 10.2895 12.659 10.6353 12.5951 11.0091H11.114V6.87679H12.5972C12.6704 7.29211 12.8893 7.67081 13.2177 7.94987C13.546 8.22893 13.9639 8.3915 14.4018 8.41052C14.8396 8.42954 15.2711 8.30387 15.6243 8.05442C15.9775 7.80497 16.2311 7.4468 16.343 7.03952C16.3541 6.99707 16.3549 6.95274 16.3455 6.90992C16.336 6.86711 16.3165 6.82694 16.2884 6.79249C16.2603 6.75805 16.2244 6.73023 16.1833 6.71118C16.1423 6.69213 16.0973 6.68235 16.0518 6.68258H16.0354C15.9689 6.68301 15.9045 6.7045 15.852 6.74372C15.7995 6.78294 15.7619 6.8377 15.7451 6.89952C15.6838 7.11478 15.5637 7.31038 15.3973 7.46607C15.2309 7.62176 15.0242 7.73187 14.7987 7.78502C14.5731 7.83817 14.3369 7.83242 14.1144 7.76836C13.8919 7.70431 13.6913 7.58427 13.5333 7.42069C13.3753 7.2571 13.2657 7.05591 13.2158 6.83794C13.1659 6.61997 13.1776 6.39315 13.2495 6.18095C13.3215 5.96875 13.4511 5.77889 13.6251 5.63102C13.799 5.48315 14.011 5.38265 14.2389 5.33992C14.3084 5.32796 14.3715 5.29303 14.4171 5.24117C14.4627 5.18931 14.488 5.12377 14.4886 5.05588V5.04097C14.4886 4.99861 14.4789 4.95678 14.4602 4.91844C14.4415 4.8801 14.4142 4.84619 14.3803 4.81912C14.3464 4.79206 14.3067 4.7725 14.264 4.76184C14.2214 4.75117 14.1768 4.74967 14.1335 4.75743C13.7442 4.8286 13.3873 5.01361 13.1116 5.28716C12.8359 5.56071 12.6549 5.90944 12.5933 6.28563H11.114V2.9714C11.114 2.73687 11.211 2.51194 11.3835 2.34611C11.5561 2.18027 11.7901 2.0871 12.0342 2.0871H21.2397C21.4837 2.0871 21.7178 2.18027 21.8903 2.34611C22.0629 2.51194 22.1599 2.73687 22.1599 2.9714L22.1599 19.4173Z" fill="#9810FA"/>
<path d="M15.6851 10.0104C15.0447 10.2705 14.5199 10.7957 14.2236 11.1422L14.0282 10.9114C13.9731 10.8473 13.894 10.8069 13.8083 10.799C13.7225 10.7911 13.637 10.8163 13.5705 10.8693C13.5039 10.9222 13.4616 10.9985 13.4529 11.0816C13.4441 11.1646 13.4696 11.2476 13.5238 11.3125L13.9811 11.8525C14.0118 11.8887 14.0503 11.9177 14.0939 11.9377C14.1375 11.9577 14.1851 11.968 14.2334 11.968C14.2387 11.968 14.2441 11.9678 14.2494 11.9676C14.3003 11.9651 14.35 11.9512 14.3943 11.9268C14.4386 11.9025 14.4765 11.8684 14.5048 11.8273C14.511 11.8183 15.1385 10.9179 15.9374 10.5935C16.0172 10.5611 16.0804 10.4993 16.1132 10.4217C16.146 10.3441 16.1456 10.2571 16.1121 10.1798C16.0787 10.1024 16.0149 10.0412 15.9348 10.0094C15.8548 9.97764 15.7649 9.978 15.6851 10.0104Z" fill="#9810FA"/>
<path d="M15.6851 5.68424C15.0447 5.94431 14.5199 6.46957 14.2236 6.8161L14.0282 6.58527C13.9731 6.52112 13.894 6.48068 13.8083 6.47278C13.7225 6.46488 13.637 6.49016 13.5705 6.54311C13.5039 6.59605 13.4616 6.67237 13.4529 6.7554C13.4441 6.83843 13.4696 6.92144 13.5238 6.98633L13.9811 7.52639C14.0118 7.5625 14.0503 7.59159 14.0939 7.61155C14.1375 7.63151 14.1851 7.64185 14.2334 7.64183C14.2387 7.64183 14.2441 7.6417 14.2494 7.64145C14.3003 7.639 14.35 7.62504 14.3943 7.60068C14.4386 7.57632 14.4765 7.54225 14.5048 7.50119C14.511 7.49212 15.1385 6.59175 15.9374 6.26735C15.9769 6.2513 16.0127 6.22787 16.0429 6.19839C16.0731 6.16891 16.097 6.13396 16.1132 6.09554C16.1294 6.05712 16.1377 6.01598 16.1375 5.97447C16.1373 5.93295 16.1287 5.89188 16.1121 5.85359C16.0956 5.8153 16.0714 5.78055 16.041 5.75132C16.0106 5.72209 15.9745 5.69895 15.9348 5.68323C15.8952 5.6675 15.8527 5.6595 15.8099 5.65967C15.767 5.65985 15.7246 5.66819 15.6851 5.68424Z" fill="#9810FA"/>
<path d="M19.7891 6.23291H17.0736C16.9994 6.23291 16.9283 6.26146 16.8758 6.31227C16.8234 6.36309 16.7939 6.432 16.7939 6.50387C16.7939 6.57573 16.8234 6.64465 16.8758 6.69546C16.9283 6.74628 16.9994 6.77482 17.0736 6.77482H19.7891C19.8633 6.77482 19.9344 6.74628 19.9868 6.69546C20.0393 6.64465 20.0687 6.57573 20.0687 6.50387C20.0687 6.432 20.0393 6.36309 19.9868 6.31227C19.9344 6.26146 19.8633 6.23291 19.7891 6.23291Z" fill="#9810FA"/>
<path d="M19.7891 7.37793H17.0736C16.9994 7.37793 16.9283 7.40648 16.8758 7.45729C16.8234 7.50811 16.7939 7.57702 16.7939 7.64889C16.7939 7.72075 16.8234 7.78967 16.8758 7.84048C16.9283 7.8913 16.9994 7.91984 17.0736 7.91984H19.7891C19.8633 7.91984 19.9344 7.8913 19.9868 7.84048C20.0393 7.78967 20.0687 7.72075 20.0687 7.64889C20.0687 7.57702 20.0393 7.50811 19.9868 7.45729C19.9344 7.40648 19.8633 7.37793 19.7891 7.37793Z" fill="#9810FA"/>
<path d="M19.7891 10.4893H17.0736C16.9994 10.4893 16.9283 10.5178 16.8758 10.5686C16.8234 10.6194 16.7939 10.6884 16.7939 10.7602C16.7939 10.8321 16.8234 10.901 16.8758 10.9518C16.9283 11.0026 16.9994 11.0312 17.0736 11.0312H19.7891C19.8633 11.0312 19.9344 11.0026 19.9868 10.9518C20.0393 10.901 20.0687 10.8321 20.0687 10.7602C20.0687 10.6884 20.0393 10.6194 19.9868 10.5686C19.9344 10.5178 19.8633 10.4893 19.7891 10.4893Z" fill="#9810FA"/>
<path d="M19.7891 11.6362H17.0736C16.9994 11.6362 16.9283 11.6648 16.8758 11.7156C16.8234 11.7664 16.7939 11.8353 16.7939 11.9072C16.7939 11.979 16.8234 12.048 16.8758 12.0988C16.9283 12.1496 16.9994 12.1781 17.0736 12.1781H19.7891C19.8633 12.1781 19.9344 12.1496 19.9868 12.0988C20.0393 12.048 20.0687 11.979 20.0687 11.9072C20.0687 11.8353 20.0393 11.7664 19.9868 11.7156C19.9344 11.6648 19.8633 11.6362 19.7891 11.6362Z" fill="#9810FA"/>
</svg>
