<svg width="24" height="24" viewBox="0 0 24 24" fill="none" xmlns="http://www.w3.org/2000/svg">
<path d="M12 1C5.93012 1 1 5.93012 1 12C1 18.0699 5.93012 23 12 23C18.0699 23 23 18.0699 23 12C23 5.93012 18.0699 1 12 1ZM12 22.0458C6.46024 22.0458 1.95422 17.5398 1.95422 12C1.95422 6.46024 6.46024 1.95422 12 1.95422C17.5398 1.95422 22.0458 6.46024 22.0458 12C22.0458 17.5398 17.5398 22.0458 12 22.0458Z" fill="#9810FA"/>
<path d="M17.7246 9.61521H14.3848V6.27545C14.3848 6.01039 14.1728 5.79834 13.9077 5.79834H10.0909C9.82579 5.79834 9.61374 6.01039 9.61374 6.27545V9.61521H6.27398C6.00892 9.61521 5.79688 9.82726 5.79688 10.0923V13.9092C5.79688 14.1742 6.00892 14.3863 6.27398 14.3863H9.61374V17.7261C9.61374 17.9911 9.82579 18.2032 10.0909 18.2032H13.9077C14.1728 18.2032 14.3848 17.9911 14.3848 17.7261V14.3863H17.7246C17.9896 14.3863 18.2017 14.1742 18.2017 13.9092V10.0923C18.1752 9.82726 17.9631 9.61521 17.7246 9.61521ZM17.274 13.4321H13.9077C13.6427 13.4321 13.4306 13.6441 13.4306 13.9092V17.2489H10.568V13.9092C10.568 13.6441 10.3559 13.4321 10.0909 13.4321H6.75109V10.5694H10.0909C10.3559 10.5694 10.568 10.3574 10.568 10.0923V6.75256H13.4571V10.0923C13.4571 10.3574 13.6692 10.5694 13.9342 10.5694H17.274V13.4321Z" fill="#9810FA"/>
</svg>
