<svg width="24" height="24" viewBox="0 0 24 24" fill="none" xmlns="http://www.w3.org/2000/svg">
<path d="M11.5 23.5H4.5C4.22386 23.5 4 23.2761 4 23V14.8249C4 14.6273 4.11637 14.4483 4.29693 14.368L7.96779 12.7365C8.2477 12.6121 8.57265 12.7664 8.65324 13.0619L11.5 23.5ZM11.5 23.5H18.5C18.7761 23.5 19 23.2761 19 23V14.8249C19 14.6273 18.8836 14.4483 18.7031 14.368L15.0322 12.7365C14.7523 12.6121 14.4274 12.7664 14.3468 13.0619L11.5 23.5ZM11.5 0.5C9.6579 0.5 8.41888 1.40344 7.5 3C7.01299 3.84617 7 4.67309 7 5.5C7 6.32691 7.01299 7.15383 7.5 8C8.41888 9.59656 9.6579 10.5 11.5 10.5C13.3421 10.5 14.5811 9.59656 15.5 8C15.987 7.15383 16 6.32691 16 5.5C16 4.67309 15.987 3.84617 15.5 3C14.5811 1.40344 13.3421 0.5 11.5 0.5ZM10.5877 12.2632L10.9832 13.4496C10.9942 13.4826 10.9964 13.518 10.9896 13.5521L10.5135 15.9327C10.5047 15.9763 10.5108 16.0216 10.5307 16.0614L11.3211 17.6422C11.3948 17.7896 11.6052 17.7896 11.6789 17.6422L12.4693 16.0614C12.4892 16.0216 12.4953 15.9763 12.4865 15.9327L12.0104 13.5521C12.0036 13.518 12.0058 13.4826 12.0168 13.4496L12.4123 12.2632C12.4554 12.1337 12.359 12 12.2225 12H10.7775C10.641 12 10.5446 12.1337 10.5877 12.2632Z" stroke="#9810FA"/>
</svg>
