<svg width="24" height="24" viewBox="0 0 24 24" fill="none" xmlns="http://www.w3.org/2000/svg">
<g clip-path="url(#clip0_1174_13519)">
<mask id="mask0_1174_13519" style="mask-type:luminance" maskUnits="userSpaceOnUse" x="0" y="0" width="24" height="24">
<path d="M0 1.90735e-06H24V24H0V1.90735e-06Z" fill="#9810FA"/>
</mask>
<g mask="url(#mask0_1174_13519)">
<path d="M14.3556 7.31489C14.3588 7.83665 14.7846 8.25708 15.3065 8.25389L15.8226 8.2507C16.3449 8.24751 16.7655 7.82156 16.762 7.29951L16.7619 7.29403C16.7599 6.99675 16.6181 6.71779 16.379 6.54094L14.7345 5.32434C14.4936 5.14617 14.3516 4.8644 14.3516 4.56487C14.3516 4.04306 14.7747 3.62006 15.2967 3.62006H15.8136C16.3355 3.62006 16.7587 4.04306 16.7587 4.56487" stroke="#9810FA" stroke-width="1.3" stroke-miterlimit="10" stroke-linecap="round" stroke-linejoin="round"/>
<path d="M15.5566 3.62012V2.94507" stroke="#9810FA" stroke-width="1.3" stroke-miterlimit="10" stroke-linecap="round" stroke-linejoin="round"/>
<path d="M15.5566 8.9292V8.25415" stroke="#9810FA" stroke-width="1.3" stroke-miterlimit="10" stroke-linecap="round" stroke-linejoin="round"/>
<path d="M20.7927 5.93688C20.7927 8.82752 18.4486 11.1709 15.557 11.1709C12.6654 11.1709 10.3213 8.82752 10.3213 5.93688C10.3213 3.04624 12.6654 0.702868 15.557 0.702868C18.4486 0.702868 20.7927 3.04624 20.7927 5.93688Z" stroke="#9810FA" stroke-width="1.3" stroke-miterlimit="10" stroke-linecap="round" stroke-linejoin="round"/>
<path d="M3.05039 23.2969L0.703125 16.4314L4.58264 15.1059L6.92986 21.9714L3.05039 23.2969Z" stroke="#9810FA" stroke-width="1.3" stroke-miterlimit="10" stroke-linecap="round" stroke-linejoin="round"/>
<path d="M17.278 15.916L20.792 13.5652C21.0691 13.3716 21.3875 13.2779 21.7036 13.2779C22.1794 13.2779 22.6493 13.4907 22.9621 13.8933C23.5177 14.6082 23.3653 15.6418 22.6277 16.1668L17.9856 19.4686C16.7435 20.3527 15.2566 20.8275 13.7322 20.8275L6.61426 21.0479" stroke="#9810FA" stroke-width="1.3" stroke-miterlimit="10" stroke-linecap="round" stroke-linejoin="round"/>
<path d="M11.8115 17.312H15.7786C16.1931 17.312 16.5681 17.1441 16.8391 16.8727C17.1106 16.6013 17.2785 16.2264 17.2785 15.8126C17.2785 14.9845 16.6071 14.3132 15.7786 14.3132H13.5809" stroke="#9810FA" stroke-width="1.3" stroke-miterlimit="10" stroke-linecap="round" stroke-linejoin="round"/>
<path d="M6.23242 15.4287C6.96812 13.9292 8.51036 12.897 10.2936 12.897C11.5887 12.897 12.7563 13.4412 13.5801 14.3136" stroke="#9810FA" stroke-width="1.3" stroke-miterlimit="10" stroke-linecap="round" stroke-linejoin="round"/>
<path d="M6.233 15.4285L4.95898 16.2075" stroke="#9810FA" stroke-width="1.3" stroke-miterlimit="10" stroke-linecap="round" stroke-linejoin="round"/>
</g>
</g>
<defs>
<clipPath id="clip0_1174_13519">
<rect width="24" height="24" fill="#9810FA"/>
</clipPath>
</defs>
</svg>
