<svg width="24" height="24" viewBox="0 0 24 24" fill="none" xmlns="http://www.w3.org/2000/svg">
<g clip-path="url(#clip0_933_16314)">
<path d="M23.6182 23.4561V14.5033C23.6203 13.6048 22.8936 12.8748 21.9951 12.8727C21.9932 12.8727 21.9913 12.8727 21.9894 12.8727H17.0728V12.3109C17.303 12.495 17.6369 12.4668 17.8329 12.2466L19.2184 10.6672C19.4167 10.4444 19.3967 10.1031 19.1739 9.90486C19.1697 9.90104 19.1653 9.89733 19.1609 9.89368L12.5455 4.23317V3.38182H15.4448C15.7465 3.38128 15.9907 3.13621 15.9902 2.83446C15.9899 2.71528 15.9508 2.59948 15.8786 2.50462L15.2578 1.68955L15.8786 0.874588C16.061 0.635515 16.015 0.293897 15.7759 0.111551C15.6808 0.0390057 15.5644 -0.000212464 15.4448 5.71758e-06H12.0084C11.7058 -0.00135792 11.4587 0.241369 11.4546 0.543878V4.13455L4.73138 9.89373C4.50371 10.0911 4.47873 10.4355 4.67558 10.6636L6.03344 12.243C6.13184 12.3631 6.27889 12.4328 6.43418 12.4329C6.555 12.4329 6.70914 12.3926 6.76369 12.311V12.8727H2.01071C1.11224 12.8716 0.382962 13.5991 0.381872 14.4975C0.381872 14.4994 0.381872 14.5014 0.381872 14.5033V23.4561C0.37849 23.7531 0.616526 23.9966 0.913472 24C0.915599 24 0.917672 24 0.919799 24H23.0803C23.3773 24.0001 23.6182 23.7595 23.6183 23.4625C23.6183 23.4603 23.6182 23.4583 23.6182 23.4561ZM12.5455 1.09091H14.3435L14.1382 1.35955C13.9895 1.55499 13.9895 1.82564 14.1382 2.02108L14.3435 2.29091H12.5455V1.09091ZM6.76369 22.9091H1.47278V14.5033C1.47 14.2081 1.707 13.9665 2.0022 13.9636C2.00504 13.9636 2.00787 13.9636 2.01071 13.9636H6.76369V22.9091ZM6.50744 11.1199L5.8602 10.367L11.951 5.15281L18.0375 10.3636L17.3739 11.1218L12.3055 6.78426C12.1017 6.60982 11.8013 6.6095 11.5971 6.7835L6.50744 11.1199ZM13.2546 22.9091H10.6364V19.0364H13.2546V22.9091ZM15.9819 22.9091H14.3455V18.474C14.3561 18.1928 14.1368 17.9563 13.8556 17.9457C13.8458 17.9454 13.836 17.9453 13.8262 17.9455H10.0752C9.78911 17.939 9.55194 18.1658 9.54551 18.4519C9.54534 18.4593 9.54534 18.4666 9.54551 18.474V22.9091H7.8546V11.3823L11.9297 7.91592L15.9819 11.3782V22.9091ZM22.5273 14.5033V22.9091H17.0728V13.9636H21.9894C22.2846 13.9618 22.5255 14.1996 22.5273 14.4948C22.5274 14.4976 22.5274 14.5004 22.5273 14.5033Z" fill="#9810FA"/>
<path d="M13.8261 14.6182H10.0505C9.7492 14.6182 9.505 14.8624 9.505 15.1636C9.505 15.4649 9.7492 15.7091 10.0505 15.7091H13.8261C14.1274 15.7091 14.3716 15.4649 14.3716 15.1636C14.3716 14.8624 14.1274 14.6182 13.8261 14.6182Z" fill="#9810FA"/>
<path d="M3.00004 15.4827C2.69879 15.4827 2.45459 15.7269 2.45459 16.0281V16.9659C2.45459 17.2671 2.69879 17.5113 3.00004 17.5113C3.3013 17.5113 3.5455 17.2671 3.5455 16.9659V16.0281C3.5455 15.7269 3.3013 15.4827 3.00004 15.4827Z" fill="#9810FA"/>
<path d="M5.23637 15.4827C4.93512 15.4827 4.69092 15.7269 4.69092 16.0281V16.9659C4.69092 17.2671 4.93512 17.5113 5.23637 17.5113C5.53763 17.5113 5.78183 17.2671 5.78183 16.9659V16.0281C5.78183 15.7269 5.53763 15.4827 5.23637 15.4827Z" fill="#9810FA"/>
<path d="M3.00004 19.135C2.69879 19.135 2.45459 19.3792 2.45459 19.6805V20.6182C2.45459 20.9195 2.69879 21.1637 3.00004 21.1637C3.3013 21.1637 3.5455 20.9195 3.5455 20.6182V19.6805C3.5455 19.3792 3.3013 19.135 3.00004 19.135Z" fill="#9810FA"/>
<path d="M5.23637 19.135C4.93512 19.135 4.69092 19.3792 4.69092 19.6805V20.6182C4.69092 20.9195 4.93512 21.1637 5.23637 21.1637C5.53763 21.1637 5.78183 20.9195 5.78183 20.6182V19.6805C5.78183 19.3792 5.53763 19.135 5.23637 19.135Z" fill="#9810FA"/>
<path d="M18.7636 15.4827C18.4623 15.4827 18.2181 15.7269 18.2181 16.0281V16.9659C18.2181 17.2671 18.4623 17.5113 18.7636 17.5113C19.0648 17.5113 19.309 17.2671 19.309 16.9659V16.0281C19.309 15.7269 19.0648 15.4827 18.7636 15.4827Z" fill="#9810FA"/>
<path d="M20.9455 15.4827C20.6442 15.4827 20.4 15.7269 20.4 16.0281V16.9659C20.4 17.2671 20.6442 17.5113 20.9455 17.5113C21.2467 17.5113 21.4909 17.2671 21.4909 16.9659V16.0281C21.4909 15.7269 21.2467 15.4827 20.9455 15.4827Z" fill="#9810FA"/>
<path d="M18.7636 19.135C18.4623 19.135 18.2181 19.3792 18.2181 19.6805V20.6182C18.2181 20.9195 18.4623 21.1637 18.7636 21.1637C19.0648 21.1637 19.309 20.9195 19.309 20.6182V19.6805C19.309 19.3792 19.0648 19.135 18.7636 19.135Z" fill="#9810FA"/>
<path d="M20.9455 19.135C20.6442 19.135 20.4 19.3792 20.4 19.6805V20.6182C20.4 20.9195 20.6442 21.1637 20.9455 21.1637C21.2467 21.1637 21.4909 20.9195 21.4909 20.6182V19.6805C21.4909 19.3792 21.2467 19.135 20.9455 19.135Z" fill="#9810FA"/>
</g>
<defs>
<clipPath id="clip0_933_16314">
<rect width="24" height="24" fill="#9810FA"/>
</clipPath>
</defs>
</svg>
