<svg width="24" height="24" viewBox="0 0 24 24" fill="none" xmlns="http://www.w3.org/2000/svg">
<path d="M21.0664 11.3555H10.7109C9.64478 11.3555 8.77734 12.2229 8.77734 13.2891V13.9336H8.43057C8.65062 13.5541 8.77734 13.114 8.77734 12.6445C8.77734 11.2229 7.62088 10.0664 6.19922 10.0664C4.77756 10.0664 3.62109 11.2229 3.62109 12.6445C3.62109 13.114 3.74782 13.5541 3.96786 13.9336H2.28906V8.13281C2.28906 7.77681 2.00053 7.48828 1.64453 7.48828C1.28853 7.48828 1 7.77681 1 8.13281V22.3555C1 22.7115 1.28853 23 1.64453 23C2.00053 23 2.28906 22.7115 2.28906 22.3555V20.3789H21.7109V22.3555C21.7109 22.7115 21.9995 23 22.3555 23C22.7115 23 23 22.7115 23 22.3555V13.2891C23 12.2229 22.1326 11.3555 21.0664 11.3555ZM10.0664 13.2891C10.0664 12.9337 10.3556 12.6445 10.7109 12.6445H21.0664C21.4217 12.6445 21.7109 12.9337 21.7109 13.2891V16.5117H10.0664V13.2891ZM4.91016 12.6445C4.91016 11.9337 5.48839 11.3555 6.19922 11.3555C6.91005 11.3555 7.48828 11.9337 7.48828 12.6445C7.48828 13.3554 6.91005 13.9336 6.19922 13.9336C5.48839 13.9336 4.91016 13.3554 4.91016 12.6445ZM2.28906 19.0898V15.2227H8.77734V17.1562C8.77734 17.5123 9.06587 17.8008 9.42188 17.8008H21.7109V19.0898H2.28906Z" fill="#9810FA"/>
<path d="M8.51363 7.66136C8.56528 7.78593 8.68681 7.86718 8.82162 7.86718H10.1549C10.3391 7.86718 10.4883 7.71796 10.4883 7.53385C10.4883 7.34973 10.3391 7.20051 10.1549 7.20051H9.62639L10.3906 6.4362C10.4859 6.34088 10.5145 6.19748 10.4629 6.07292C10.4113 5.94844 10.2898 5.86719 10.1549 5.86719H8.82162C8.6375 5.86719 8.48829 6.01641 8.48829 6.20052C8.48829 6.38463 8.6375 6.53385 8.82162 6.53385H9.35017L8.58594 7.29817C8.49063 7.39348 8.46207 7.53688 8.51363 7.66136Z" fill="#9810FA"/>
<path d="M13.6699 2.79416C13.7215 2.91872 13.8431 2.99997 13.9779 2.99997H15.3112C15.4953 2.99997 15.6445 2.85076 15.6445 2.66664C15.6445 2.48253 15.4953 2.33331 15.3112 2.33331H14.7826L15.5469 1.569C15.6423 1.47369 15.6707 1.33029 15.6192 1.20573C15.5675 1.08125 15.446 1 15.3112 1H13.9779C13.7938 1 13.6445 1.14922 13.6445 1.33333C13.6445 1.51744 13.7938 1.66666 13.9779 1.66666H14.5064L13.7422 2.43097C13.6469 2.52628 13.6183 2.66968 13.6699 2.79416Z" fill="#9810FA"/>
</svg>
