<svg width="24" height="24" viewBox="0 0 24 24" fill="none" xmlns="http://www.w3.org/2000/svg">
  <path d="M19 8H5C3.9 8 3 8.9 3 10V18C3 19.1 3.9 20 5 20H6C6 21.1 6.9 22 8 22C9.1 22 10 21.1 10 20H14C14 21.1 14.9 22 16 22C17.1 22 18 21.1 18 20H19C20.1 20 21 19.1 21 18V10C21 8.9 20.1 8 19 8ZM8 20C7.45 20 7 19.55 7 19C7 18.45 7.45 18 8 18C8.55 18 9 18.45 9 19C9 19.55 8.55 20 8 20ZM16 20C15.45 20 15 19.55 15 19C15 18.45 15.45 18 16 18C16.55 18 17 18.45 17 19C17 19.55 16.55 20 16 20ZM19 11H5V9H19V11Z" fill="#8200DB"/>
  <path d="M12 11C11.45 11 11 11.45 11 12V14C11 14.55 11.45 15 12 15C12.55 15 13 14.55 13 14V12C13 11.45 12.55 11 12 11Z" fill="#8200DB"/>
</svg>