<svg width="121" height="120" viewBox="0 0 121 120" fill="none" xmlns="http://www.w3.org/2000/svg">
<g clip-path="url(#clip0_4012_7227)">
<path d="M116.874 30.4359C113.727 18.8391 101.666 6.78047 90.0687 3.63047C82.9578 1.85859 73.4328 0.0328125 60.5023 0C47.5719 0.0328125 38.0469 1.85625 30.9359 3.63047C19.3414 6.78047 7.28047 18.8391 4.13047 30.4359C2.35859 37.5445 0.532812 47.0719 0.5 60.0023C0.532812 72.9328 2.35625 82.4578 4.13047 89.5687C7.28047 101.166 19.3391 113.224 30.9359 116.374C38.0469 118.148 47.5719 119.972 60.5023 120.005C73.4305 119.972 82.9578 118.148 90.0687 116.374C101.666 113.224 113.724 101.166 116.874 89.5687C118.648 82.4602 120.472 72.9328 120.505 60.0023C120.472 47.0719 118.648 37.5469 116.874 30.4359Z" fill="#E9ECF1"/>
<path d="M94.729 42.0302C93.4306 34.6731 86.7462 27.9911 79.3891 26.6903C74.9243 25.945 68.8493 25.2513 60.5524 25.2442C52.2556 25.2349 46.1782 25.9474 41.7157 26.6903C34.3587 27.9864 27.6767 34.6685 26.3759 42.0302C25.6306 46.495 24.9368 52.57 24.9298 60.8669C24.9204 69.1638 25.6329 75.2411 26.3759 79.7036C27.6743 87.0606 34.3587 93.7427 41.7157 95.0434C46.1806 95.7888 52.2556 96.4825 60.5524 96.4895C68.8493 96.4989 74.9266 95.7864 79.3891 95.0434C86.7462 93.745 93.4282 87.0606 94.729 79.7036C95.4743 75.2388 96.1681 69.1638 96.1751 60.8669C96.1845 52.57 95.4626 46.488 94.729 42.0302Z" fill="url(#paint0_linear_4012_7227)"/>
<path d="M95.3719 46.5231C95.1727 44.8685 94.9523 43.3731 94.7297 42.0302C93.4313 34.6731 86.7469 27.9911 79.3898 26.6903C74.925 25.945 68.85 25.2513 60.5531 25.2442C52.2562 25.2349 46.1789 25.9474 41.7164 26.6903C34.3594 27.9864 27.6773 34.6685 26.3766 42.0302C26.1516 43.3755 25.9312 44.8661 25.7344 46.5208C25.8094 46.5161 39.6375 45.827 60.5695 45.827C81.5016 45.827 95.3039 46.5208 95.3742 46.5231H95.3719Z" fill="#293FE3"/>
<path d="M48.8672 23.8613C48.8672 21.7838 47.183 20.0996 45.1055 20.0996C43.0279 20.0996 41.3438 21.7838 41.3438 23.8613V29.7652C41.3438 31.8428 43.0279 33.527 45.1055 33.527C47.183 33.527 48.8672 31.8428 48.8672 29.7652V23.8613Z" fill="url(#paint1_linear_4012_7227)"/>
<path d="M79.7617 23.8613C79.7617 21.7838 78.0775 20.0996 76 20.0996C73.9225 20.0996 72.2383 21.7838 72.2383 23.8613V29.7652C72.2383 31.8428 73.9225 33.527 76 33.527C78.0775 33.527 79.7617 31.8428 79.7617 29.7652V23.8613Z" fill="url(#paint2_linear_4012_7227)"/>
<path d="M64.3145 23.8613C64.3145 21.7838 62.6303 20.0996 60.5527 20.0996C58.4752 20.0996 56.791 21.7838 56.791 23.8613V29.7652C56.791 31.8428 58.4752 33.527 60.5527 33.527C62.6303 33.527 64.3145 31.8428 64.3145 29.7652V23.8613Z" fill="url(#paint3_linear_4012_7227)"/>
<path d="M49.0242 78.3578C48.8555 79.3117 47.9883 80.1789 47.0344 80.3477C46.4555 80.4438 45.668 80.5352 44.5922 80.5352C43.5164 80.5352 42.7289 80.4438 42.15 80.3477C41.1961 80.1789 40.3289 79.3117 40.1602 78.3578C40.0641 77.7789 39.9727 76.9914 39.9727 75.9156C39.9727 74.8398 40.0641 74.0523 40.1602 73.4734C40.3289 72.5195 41.1961 71.6523 42.15 71.4836C42.7289 71.3875 43.5164 71.2961 44.5922 71.2961C45.668 71.2961 46.4555 71.3875 47.0344 71.4836C47.9883 71.6523 48.8555 72.5195 49.0242 73.4734C49.1203 74.0523 49.2117 74.8398 49.2117 75.9156C49.2117 76.9914 49.1203 77.7789 49.0242 78.3578ZM49.0242 63.2453C48.8555 64.1992 47.9883 65.0664 47.0344 65.2352C46.4555 65.3312 45.668 65.4227 44.5922 65.4227C43.5164 65.4227 42.7289 65.3312 42.15 65.2352C41.1961 65.0664 40.3289 64.1992 40.1602 63.2453C40.0641 62.6664 39.9727 61.8789 39.9727 60.8031C39.9727 59.7273 40.0641 58.9398 40.1602 58.3609C40.3289 57.407 41.1961 56.5398 42.15 56.3711C42.7289 56.275 43.5164 56.1836 44.5922 56.1836C45.668 56.1836 46.4555 56.275 47.0344 56.3711C47.9883 56.5398 48.8555 57.407 49.0242 58.3609C49.1203 58.9398 49.2117 59.7273 49.2117 60.8031C49.2117 61.8789 49.1203 62.6664 49.0242 63.2453ZM63.0469 65.2352C62.468 65.3312 61.6805 65.4227 60.6047 65.4227C59.5289 65.4227 58.7414 65.3312 58.1625 65.2352C57.2086 65.0664 56.3414 64.1992 56.1727 63.2453C56.0766 62.6664 55.9852 61.8789 55.9852 60.8031C55.9852 59.7273 56.0766 58.9398 56.1727 58.3609C56.3414 57.407 57.2086 56.5398 58.1625 56.3711C58.7414 56.275 59.5289 56.1836 60.6047 56.1836C61.6805 56.1836 62.468 56.275 63.0469 56.3711C64.0008 56.5398 64.868 57.407 65.0367 58.3609C65.1328 58.9398 65.2242 59.7273 65.2242 60.8031C65.2242 61.8789 65.1328 62.6664 65.0367 63.2453C64.868 64.1992 64.0008 65.0664 63.0469 65.2352Z" fill="#1D3256"/>
<path d="M82.3816 63.7734C72.4043 63.7734 64.3184 71.8617 64.3184 81.8367C64.3184 91.8117 72.4066 99.9 82.3816 99.9C92.3566 99.9 100.445 91.8117 100.445 81.8367C100.445 71.8617 92.3566 63.7734 82.3816 63.7734Z" fill="url(#paint4_linear_4012_7227)"/>
<path d="M87.1439 81.8365L90.2611 78.7193C91.576 77.4045 91.576 75.2717 90.2611 73.9568C88.9463 72.642 86.8135 72.642 85.4986 73.9568L82.3814 77.074L79.2643 73.9568C77.9494 72.642 75.8166 72.642 74.5018 73.9568C73.1869 75.2717 73.1869 77.4045 74.5018 78.7193L77.6189 81.8365L74.5018 84.9537C73.1869 86.2686 73.1869 88.4014 74.5018 89.7162C75.8166 91.0311 77.9494 91.0311 79.2643 89.7162L82.3814 86.599L85.4986 89.7162C86.8135 91.0311 88.9463 91.0311 90.2611 89.7162C91.576 88.4014 91.576 86.2686 90.2611 84.9537L87.1439 81.8365Z" fill="url(#paint5_linear_4012_7227)"/>
</g>
<defs>
<linearGradient id="paint0_linear_4012_7227" x1="93.5688" y1="93.8833" x2="26.4392" y2="26.7536" gradientUnits="userSpaceOnUse">
<stop stop-color="#BCE4ED"/>
<stop offset="0.49" stop-color="white"/>
<stop offset="1" stop-color="white"/>
</linearGradient>
<linearGradient id="paint1_linear_4012_7227" x1="49.2398" y1="30.9488" x2="40.9688" y2="22.6777" gradientUnits="userSpaceOnUse">
<stop stop-color="#34344F"/>
<stop offset="0.26" stop-color="#3B3B56"/>
<stop offset="0.66" stop-color="#4F4F6C"/>
<stop offset="1" stop-color="#666684"/>
</linearGradient>
<linearGradient id="paint2_linear_4012_7227" x1="80.1367" y1="30.9488" x2="71.8656" y2="22.6777" gradientUnits="userSpaceOnUse">
<stop stop-color="#34344F"/>
<stop offset="0.26" stop-color="#3B3B56"/>
<stop offset="0.66" stop-color="#4F4F6C"/>
<stop offset="1" stop-color="#666684"/>
</linearGradient>
<linearGradient id="paint3_linear_4012_7227" x1="64.6871" y1="30.9488" x2="56.416" y2="22.6777" gradientUnits="userSpaceOnUse">
<stop stop-color="#34344F"/>
<stop offset="0.26" stop-color="#3B3B56"/>
<stop offset="0.66" stop-color="#4F4F6C"/>
<stop offset="1" stop-color="#666684"/>
</linearGradient>
<linearGradient id="paint4_linear_4012_7227" x1="95.1551" y1="94.6102" x2="69.6082" y2="69.0633" gradientUnits="userSpaceOnUse">
<stop stop-color="#EF3739"/>
<stop offset="0.54" stop-color="#EF3739"/>
<stop offset="1" stop-color="#FF8C8B"/>
</linearGradient>
<linearGradient id="paint5_linear_4012_7227" x1="90.2611" y1="89.7162" x2="74.5018" y2="73.9568" gradientUnits="userSpaceOnUse">
<stop stop-color="#FFD2D2"/>
<stop offset="0.57" stop-color="white"/>
<stop offset="1" stop-color="white"/>
</linearGradient>
<clipPath id="clip0_4012_7227">
<rect width="120" height="120" fill="white" transform="translate(0.5)"/>
</clipPath>
</defs>
</svg>
